<svg width="14" height="63" viewBox="0 0 14 63" fill="none" xmlns="http://www.w3.org/2000/svg">
<path d="M-2.90716e-05 10.556L1.90397 10.556C2.79997 10.556 3.56531 10.7613 4.19997 11.172C4.8533 11.6013 5.29197 12.208 5.51597 12.992L5.51597 -3.39026e-07L7.75597 -2.41112e-07L7.75597 12.992C7.97997 12.208 8.4093 11.6013 9.04397 11.172C9.6973 10.7613 10.472 10.556 11.368 10.556L13.272 10.556L13.272 12.964L11.62 12.964C10.4626 12.964 9.51997 13.272 8.79197 13.888C8.06397 14.504 7.69997 15.3627 7.69997 16.464L7.69997 16.8L5.57197 16.8L5.57197 16.464C5.57197 15.3627 5.20797 14.504 4.47997 13.888C3.75197 13.272 2.8093 12.964 1.65197 12.964L-2.91769e-05 12.964L-2.90716e-05 10.556Z" fill="#FFC66F"/>
<path d="M-2.90716e-05 33.3199L1.90397 33.3199C2.79997 33.3199 3.56531 33.5252 4.19997 33.9359C4.8533 34.3652 5.29197 34.9719 5.51597 35.7559L5.51597 22.7639L7.75597 22.7639L7.75597 35.7559C7.97997 34.9719 8.4093 34.3653 9.04397 33.9359C9.6973 33.5252 10.472 33.3199 11.368 33.3199L13.272 33.3199L13.272 35.7279L11.62 35.7279C10.4626 35.7279 9.51997 36.0359 8.79197 36.6519C8.06397 37.2679 7.69997 38.1266 7.69997 39.2279L7.69997 39.5639L5.57197 39.5639L5.57197 39.2279C5.57197 38.1266 5.20797 37.2679 4.47997 36.6519C3.75197 36.0359 2.8093 35.7279 1.65197 35.7279L-2.91769e-05 35.7279L-2.90716e-05 33.3199Z" fill="#FFC66F"/>
<path d="M-2.90716e-05 56.0838L1.90397 56.0838C2.79997 56.0838 3.56531 56.2892 4.19997 56.6998C4.8533 57.1292 5.29197 57.7358 5.51597 58.5198L5.51597 45.5278L7.75597 45.5278L7.75597 58.5198C7.97997 57.7358 8.4093 57.1292 9.04397 56.6998C9.6973 56.2892 10.472 56.0838 11.368 56.0838L13.272 56.0838L13.272 58.4918L11.62 58.4918C10.4626 58.4918 9.51997 58.7998 8.79197 59.4158C8.06397 60.0318 7.69997 60.8905 7.69997 61.9918L7.69997 62.3278L5.57197 62.3278L5.57197 61.9918C5.57197 60.8905 5.20797 60.0318 4.47997 59.4158C3.75197 58.7998 2.8093 58.4918 1.65197 58.4918L-2.91769e-05 58.4918L-2.90716e-05 56.0838Z" fill="#FFC66F"/>
</svg>
