<svg width="56" height="51" viewBox="0 0 56 51" fill="none" xmlns="http://www.w3.org/2000/svg">
<path fill-rule="evenodd" clip-rule="evenodd" d="M3.0404 15.2017L5.34058e-05 12.1614L4.56057 7.60086L6.48499e-05 3.04036L3.04041 1.40848e-05L7.60091 4.56052L12.1614 0L15.2018 3.04034L10.6413 7.60086L15.2018 12.1614L12.1614 15.2017L7.60091 10.6412L3.0404 15.2017Z" fill="#FFC66F"/>
<path fill-rule="evenodd" clip-rule="evenodd" d="M22.9842 15.2017L19.9439 12.1614L24.5044 7.60085L19.9439 3.04036L22.9843 1.40848e-05L27.5448 4.56051L32.1053 0L35.1456 3.04034L30.5851 7.60085L35.1456 12.1614L32.1053 15.2017L27.5448 10.6412L22.9842 15.2017Z" fill="#FFC66F"/>
<path fill-rule="evenodd" clip-rule="evenodd" d="M42.9278 15.2017L39.8875 12.1614L44.448 7.60085L39.8875 3.04036L42.9279 1.40848e-05L47.4884 4.56051L52.0489 0L55.0892 3.04034L50.5287 7.60085L55.0892 12.1614L52.0489 15.2017L47.4884 10.6412L42.9278 15.2017Z" fill="#FFC66F"/>
<path fill-rule="evenodd" clip-rule="evenodd" d="M3.0404 32.7745L5.34058e-05 29.7341L4.56057 25.1736L6.48499e-05 20.6131L3.04041 17.5728L7.60091 22.1333L12.1614 17.5728L15.2018 20.6131L10.6413 25.1736L15.2018 29.7341L12.1614 32.7745L7.60091 28.214L3.0404 32.7745Z" fill="#FFC66F"/>
<path fill-rule="evenodd" clip-rule="evenodd" d="M22.9842 32.7745L19.9439 29.7341L24.5044 25.1736L19.9439 20.6131L22.9843 17.5728L27.5448 22.1333L32.1053 17.5728L35.1456 20.6131L30.5851 25.1736L35.1456 29.7341L32.1053 32.7745L27.5448 28.214L22.9842 32.7745Z" fill="#FFC66F"/>
<path fill-rule="evenodd" clip-rule="evenodd" d="M42.9278 32.7745L39.8875 29.7341L44.448 25.1736L39.8875 20.6131L42.9279 17.5728L47.4884 22.1333L52.0489 17.5728L55.0892 20.6131L50.5287 25.1736L55.0892 29.7341L52.0489 32.7745L47.4884 28.214L42.9278 32.7745Z" fill="#FFC66F"/>
<path fill-rule="evenodd" clip-rule="evenodd" d="M3.0404 50.3472L5.34058e-05 47.3069L4.56057 42.7464L6.48499e-05 38.1859L3.04041 35.1455L7.60091 39.706L12.1614 35.1455L15.2018 38.1859L10.6413 42.7464L15.2018 47.3069L12.1614 50.3472L7.60091 45.7867L3.0404 50.3472Z" fill="#FFC66F"/>
<path fill-rule="evenodd" clip-rule="evenodd" d="M22.9842 50.3472L19.9439 47.3069L24.5044 42.7464L19.9439 38.1859L22.9843 35.1455L27.5448 39.706L32.1053 35.1455L35.1456 38.1859L30.5851 42.7464L35.1456 47.3069L32.1053 50.3472L27.5448 45.7867L22.9842 50.3472Z" fill="#FFC66F"/>
<path fill-rule="evenodd" clip-rule="evenodd" d="M42.9278 50.3472L39.8875 47.3069L44.448 42.7464L39.8875 38.1859L42.9279 35.1455L47.4884 39.706L52.0489 35.1455L55.0892 38.1859L50.5287 42.7464L55.0892 47.3069L52.0489 50.3472L47.4884 45.7867L42.9278 50.3472Z" fill="#FFC66F"/>
</svg>
